<svg width="36" height="35" viewBox="0 0 36 35" fill="none" xmlns="http://www.w3.org/2000/svg">
<path d="M17.9405 34.0977C27.8507 34.0977 35.881 26.4591 35.881 17.0464C35.881 7.6293 27.8507 9.53674e-05 17.9405 9.53674e-05C8.03291 9.53674e-05 0 7.6293 0 17.0464C0 26.4591 8.03291 34.0977 17.9405 34.0977Z" fill="white"/>
<path d="M17.2285 9.56397V24.5098H22.2266V23.1789H18.6558V9.56397H17.2285Z" fill="#A40033"/>
<path d="M12.2138 13.644C13.4039 13.644 14.3678 12.728 14.3678 11.6027C14.3678 10.4718 13.4039 9.55514 12.2138 9.55514C11.033 9.55514 10.0664 10.4718 10.0664 11.6027C10.0664 12.728 11.033 13.644 12.2138 13.644Z" fill="#A40033"/>
<path d="M18.6565 2.78193C18.473 2.77444 18.1152 2.76945 17.9429 2.76945C9.66628 2.76945 2.92969 9.17312 2.92969 17.0427C2.92969 20.8551 4.48734 24.4352 7.31896 27.1298C10.165 29.8263 13.9383 31.3091 17.9429 31.3091C21.9482 31.3091 25.7221 29.8263 28.5674 27.1298C31.3964 24.4352 32.9548 20.8551 32.9548 17.0427V16.3913L32.3565 16.3957H22.2384V17.7202H31.5301V17.9121C31.053 24.642 25.1415 29.977 17.9429 29.977C14.3085 29.977 10.8911 28.6325 8.31966 26.1901C5.74688 23.7471 4.33071 20.497 4.33071 17.0427C4.33071 13.5865 5.74688 10.3371 8.31966 7.89588C10.8911 5.44789 14.3085 4.10402 17.9429 4.10402C18.1073 4.10402 18.4933 4.1071 18.6565 4.11083V2.78193Z" fill="#A40033"/>
</svg>
