<svg width="160" height="56" viewBox="0 0 160 56" fill="none" xmlns="http://www.w3.org/2000/svg">
<g clip-path="url(#clip0_894_3548)">
<path d="M60.742 15.56H55.1523V39.6943H72.3218V34.9951H60.742V15.56Z" fill="#6D6E70"/>
<mask id="mask0_894_3548" style="mask-type:luminance" maskUnits="userSpaceOnUse" x="0" y="0" width="160" height="56">
<path d="M0 -9.53674e-05H160V56H0V-9.53674e-05Z" fill="white"/>
</mask>
<g mask="url(#mask0_894_3548)">
<path d="M84.6176 30.4957H89.1668V34.7136C88.3308 35.0334 86.695 35.3538 85.1385 35.3538C80.106 35.3538 78.4285 32.803 78.4285 27.6252C78.4285 22.69 80.024 19.7799 85.0558 19.7799C87.8502 19.7799 89.4485 20.6568 90.765 22.3286L94.2417 19.1452C92.1246 16.1178 88.4094 15.2013 84.9361 15.2013C77.1099 15.2013 72.9961 19.4622 72.9961 27.5849C72.9961 35.6702 76.7093 40.0503 84.8965 40.0503C88.648 40.0503 92.3216 39.0957 94.3203 37.7013V25.9935H84.6176V30.4957Z" fill="#6D6E70"/>
<path d="M150.644 22.0774H146.181V15.4217H141.879V40.4453H145.642C145.992 38.9698 146.181 36.4348 146.181 34.4503V25.6721H150.644V22.0774ZM124.619 15.8783V19.3914H129.73V21.0894C129.73 25.5674 128.817 28.3836 124.165 30.4235L125.912 33.5338C128.574 32.5428 131.075 30.6638 132.23 28.2773C133.386 30.5306 135.807 32.3819 138.145 33.2921L140.241 29.6457C135.724 27.9554 134.165 25.3264 134.165 21.0624V19.3914H139.137V15.8783H124.619ZM122.065 36.8229H108.835C108.487 36.8229 108.379 36.7435 108.379 36.3677V31.1389H103.888V38.1905C103.888 39.7206 104.666 40.4453 106.201 40.4453H122.065V36.8229ZM121.609 15.4217H117.118V20.518H112.896V24.1921H117.118V33.5007H121.072C121.393 32.2378 121.609 30.1193 121.609 28.5915V15.4217ZM99.3179 15.906V19.4453H104.21V20.3556C104.21 24.0041 102.731 25.9355 98.752 27.1954L100.258 30.5745C103.001 29.9322 105.69 28.3219 106.792 26.1234C107.974 28.3219 110.559 29.8506 112.95 30.4135L114.858 26.5531C111.39 25.803 108.89 23.9233 108.89 20.3294V19.4453H113.701V15.906H99.3179Z" fill="#6D6E70"/>
<path d="M28.0718 46.6665C38.4094 46.6665 46.7861 38.3031 46.7861 27.9971C46.7861 17.6863 38.4094 9.33312 28.0718 9.33312C17.7368 9.33312 9.35742 17.6863 9.35742 27.9971C9.35742 38.3031 17.7368 46.6665 28.0718 46.6665Z" fill="#A40033"/>
<path d="M27.3281 19.8043V36.1685H32.5418V34.7113H28.8169V19.8043H27.3281Z" fill="white"/>
<path d="M22.0975 24.272C23.3388 24.272 24.3444 23.269 24.3444 22.0369C24.3444 20.7987 23.3388 19.795 22.0975 19.795C20.8657 19.795 19.8574 20.7987 19.8574 22.0369C19.8574 23.269 20.8657 24.272 22.0975 24.272Z" fill="white"/>
<path d="M28.8173 12.3794C28.6259 12.3712 28.2527 12.3657 28.0729 12.3657C19.4393 12.3657 12.4121 19.3771 12.4121 27.9935C12.4121 32.1677 14.0369 36.0876 16.9907 39.0379C19.9595 41.9903 23.8955 43.6138 28.0729 43.6138C32.2509 43.6138 36.1876 41.9903 39.1557 39.0379C42.1067 36.0876 43.7323 32.1677 43.7323 27.9935V27.2803L43.1082 27.2851H32.5537V28.7354H42.2462V28.9454C41.7485 36.314 35.582 42.1553 28.0729 42.1553C24.2818 42.1553 20.7169 40.6832 18.0346 38.009C15.3508 35.3342 13.8736 31.7757 13.8736 27.9935C13.8736 24.2093 15.3508 20.6515 18.0346 17.9787C20.7169 15.2984 24.2818 13.827 28.0729 13.827C28.2444 13.827 28.6471 13.8303 28.8173 13.8344V12.3794Z" fill="white"/>
</g>
</g>
<defs>
<clipPath id="clip0_894_3548">
<rect width="160" height="56" fill="white"/>
</clipPath>
</defs>
</svg>
