<svg width="22" height="21" viewBox="0 0 22 21" fill="none" xmlns="http://www.w3.org/2000/svg">
<path d="M9.71858 3.92231C12.0441 3.6586 14.3965 4.12639 16.4164 5.25426C18.4364 6.38213 20.0129 8.10809 20.9052 10.1686C20.9884 10.3819 20.9884 10.6165 20.9052 10.8298C20.5377 11.6759 20.0529 12.4715 19.4636 13.1953M13.0641 12.5502C12.4992 13.0694 11.7426 13.3566 10.9573 13.3501C10.172 13.3436 9.42083 13.0439 8.86552 12.5155C8.31021 11.9871 7.99522 11.2723 7.98839 10.525C7.98157 9.77775 8.28346 9.05783 8.82904 8.52032" stroke="black" stroke-linecap="round" stroke-linejoin="round"/>
<path d="M16.4541 15.7241C15.1298 16.4705 13.6522 16.9372 12.1216 17.0924C10.591 17.2476 9.04325 17.0877 7.58333 16.6236C6.1234 16.1594 4.78548 15.4019 3.66035 14.4024C2.53521 13.4028 1.64919 12.1847 1.0624 10.8306C0.979199 10.6173 0.979199 10.3827 1.0624 10.1694C1.94758 8.12676 3.50506 6.41238 5.50111 5.28355M1.0005 1L20.9677 20" stroke="black" stroke-linecap="round" stroke-linejoin="round"/>
</svg>
